<svg id="_x31_px" fill="#54be73" enable-background="new 0 0 24 24" height="512" viewBox="0 0 24 24" width="512" xmlns="http://www.w3.org/2000/svg"><path d="m23.5 1h-23c-.276 0-.5-.224-.5-.5s.224-.5.5-.5h23c.276 0 .5.224.5.5s-.224.5-.5.5z"/><path d="m15.559 4h-7.118c-1.077 0-2.03-.687-2.371-1.709l-.544-1.633c-.088-.262.054-.545.316-.632.263-.088.545.054.632.316l.544 1.632c.205.614.777 1.026 1.423 1.026h7.117c.646 0 1.218-.412 1.423-1.026l.544-1.632c.087-.262.369-.404.632-.316.262.087.403.37.316.632l-.543 1.633c-.341 1.022-1.294 1.709-2.371 1.709z"/><path d="m12.5 7h-1c-.215 0-.406-.138-.474-.342l-1-3c-.087-.262.054-.545.316-.632.264-.087.545.054.632.316l.886 2.658h.279l.886-2.658c.087-.262.368-.403.632-.316.262.087.403.37.316.632l-1 3c-.067.204-.258.342-.473.342z"/><path d="m12 14c-.053 0-.107-.009-.158-.026l-7.5-2.5c-.204-.068-.342-.259-.342-.474s.138-.406.342-.474l7.5-2.5c.103-.034.214-.034.316 0l7.5 2.5c.204.068.342.259.342.474s-.138.406-.342.474l-7.5 2.5c-.051.017-.105.026-.158.026zm-5.919-3 5.919 1.973 5.919-1.973-5.919-1.973z"/><path d="m12 24c-.053 0-.107-.009-.158-.026l-7.5-2.5c-.204-.068-.342-.259-.342-.474v-10c0-.276.224-.5.5-.5s.5.224.5.5v9.64l7 2.333 7-2.333v-9.64c0-.276.224-.5.5-.5s.5.224.5.5v10c0 .215-.138.406-.342.474l-7.5 2.5c-.051.017-.105.026-.158.026z"/><path d="m12 24c-.276 0-.5-.224-.5-.5v-10c0-.276.224-.5.5-.5s.5.224.5.5v10c0 .276-.224.5-.5.5z"/></svg>