<svg id="Layer_5" fill="#54be73" enable-background="new 0 0 64 64" height="512" viewBox="0 0 64 64" width="512" xmlns="http://www.w3.org/2000/svg"><g><path d="m58 13h-1v-1c0-1.654-1.346-3-3-3h-12c-1.654 0-3 1.346-3 3v1h-33c-2.757 0-5 2.243-5 5v32c0 2.757 2.243 5 5 5h52c2.757 0 5-2.243 5-5v-32c0-2.757-2.243-5-5-5zm-17-1c0-.552.449-1 1-1h12c.551 0 1 .448 1 1v4c0 .552-.449 1-1 1h-12c-.551 0-1-.448-1-1zm-38 38v-32c0-1.654 1.346-3 3-3h33v1c0 1.654 1.346 3 3 3h12c1.654 0 3-1.346 3-3v-1h1c1.654 0 3 1.346 3 3v23h-12v12h-43c-1.654 0-3-1.346-3-3zm55 3h-7v-10h10v7c0 1.654-1.346 3-3 3z"/><path d="m11 20c0-1.654-1.346-3-3-3s-3 1.346-3 3 1.346 3 3 3 3-1.346 3-3zm-4 0c0-.552.449-1 1-1s1 .448 1 1-.449 1-1 1-1-.448-1-1z"/><path d="m56 45c-1.654 0-3 1.346-3 3s1.346 3 3 3 3-1.346 3-3-1.346-3-3-3zm0 4c-.551 0-1-.448-1-1s.449-1 1-1 1 .448 1 1-.449 1-1 1z"/><path d="m15 43h14v-14h-14zm2-12h10v10h-10z"/><path d="m31 25v-4h-2v4h-2v-4h-2v4h-2v-4h-2v4h-2v-4h-2v4h-2v-4h-2v4c-1.103 0-2 .897-2 2h-4v2h4v2h-4v2h4v2h-4v2h4v2h-4v2h4v2h-4v2h4c0 1.103.897 2 2 2v4h2v-4h2v4h2v-4h2v4h2v-4h2v4h2v-4h2v4h2v-4c1.103 0 2-.897 2-2h4v-2h-4v-2h4v-2h-4v-2h4v-2h-4v-2h4v-2h-4v-2h4v-2h-4c0-1.103-.897-2-2-2zm-18 20v-18h18l.001 18z"/><path d="m45 29c2.206 0 4-1.794 4-4s-1.794-4-4-4-4 1.794-4 4 1.794 4 4 4zm0-6c1.103 0 2 .897 2 2s-.897 2-2 2-2-.897-2-2 .897-2 2-2z"/><path d="m55 29c2.206 0 4-1.794 4-4s-1.794-4-4-4-4 1.794-4 4 1.794 4 4 4zm0-6c1.103 0 2 .897 2 2s-.897 2-2 2-2-.897-2-2 .897-2 2-2z"/><path d="m59 31h-18v8h18zm-2 6h-14v-4h14z"/><path d="m43 43c-2.206 0-4 1.794-4 4s1.794 4 4 4 4-1.794 4-4-1.794-4-4-4zm0 6c-1.103 0-2-.897-2-2s.897-2 2-2 2 .897 2 2-.897 2-2 2z"/><path d="m47 13h2v2h-2z"/><path d="m51 13h2v2h-2z"/><path d="m43 13h2v2h-2z"/></g></svg>