<?xml version="1.0" encoding="iso-8859-1"?>
<!-- Generator: Adobe Illustrator 19.0.0, SVG Export Plug-In . SVG Version: 6.00 Build 0)  -->
<svg version="1.1" fill="#54be73" id="Capa_1" xmlns="http://www.w3.org/2000/svg" xmlns:xlink="http://www.w3.org/1999/xlink" x="0px" y="0px"
	 viewBox="0 0 512.001 512.001" style="enable-background:new 0 0 512.001 512.001;" xml:space="preserve">
<g>
	<g>
		<rect x="181.331" y="160" width="96" height="21.333"/>
	</g>
</g>
<g>
	<g>
		<path d="M458.667,0H53.333C23.893,0.035,0.035,23.893,0,53.333v405.333C0.035,488.107,23.893,511.965,53.333,512H224v-21.333
			H53.333c-17.673,0-32-14.327-32-32V53.333c0-17.673,14.327-32,32-32h405.333c17.673,0,32,14.327,32,32v181.333H512V53.333
			C511.966,23.893,488.107,0.035,458.667,0z"/>
	</g>
</g>
<g>
	<g>
		<rect x="320" y="42.667" width="21.333" height="117.33"/>
	</g>
</g>
<g>
	<g>
		<path d="M192,213.334L192,213.334V42.667h-21.333v170.667c0,11.782,9.551,21.333,21.333,21.333h21.333v-21.333H192z"/>
	</g>
</g>
<g>
	<g>
		<path d="M138.667,362.667h-64c-5.891,0-10.667,4.776-10.667,10.667v64C64,443.224,68.776,448,74.667,448h64
			c5.891,0,10.667-4.776,10.667-10.667v-64C149.333,367.442,144.558,362.667,138.667,362.667z M128,426.667H85.333V384H128V426.667z
			"/>
	</g>
</g>
<g>
	<g>
		<path d="M501.333,309.333h-40.043c-0.587-1.483-1.195-2.955-1.856-4.437l28.331-28.32c4.164-4.165,4.164-10.917,0-15.083
			l-45.259-45.259c-4.231-4.001-10.851-4.001-15.083,0l-28.32,28.331c-1.483-0.651-2.955-1.269-4.437-1.867v-40.032
			c0-5.891-4.776-10.667-10.667-10.667h-64c-5.891,0-10.667,4.776-10.667,10.667v40.032c-1.483,0.597-2.955,1.216-4.437,1.867
			l-28.32-28.331c-4.231-4.001-10.851-4.001-15.083,0l-45.259,45.259c-4.164,4.165-4.164,10.917,0,15.083l28.331,28.32
			c-0.661,1.483-1.269,2.955-1.856,4.437h-40.043c-5.891,0-10.667,4.776-10.667,10.667v64c0,5.891,4.776,10.667,10.667,10.667
			h40.043c0.587,1.483,1.195,2.955,1.856,4.437l-28.331,28.32c-4.164,4.165-4.164,10.917,0,15.083l45.259,45.259
			c4.165,4.164,10.917,4.164,15.083,0l28.32-28.331c1.483,0.661,2.955,1.269,4.437,1.856v40.043c0,5.891,4.776,10.667,10.667,10.667
			h64c5.891,0,10.667-4.776,10.667-10.667v-40.043c1.483-0.587,2.955-1.195,4.437-1.856l28.32,28.331
			c4.165,4.164,10.917,4.164,15.083,0l45.259-45.259c4.164-4.165,4.164-10.917,0-15.083l-28.331-28.32
			c0.661-1.483,1.269-2.955,1.856-4.437h40.043c5.891,0,10.667-4.776,10.667-10.667v-64
			C512,314.109,507.224,309.333,501.333,309.333z M490.667,373.323h-36.885c-4.659,0-8.778,3.023-10.176,7.467
			c-1.711,5.367-3.888,10.575-6.507,15.563c-2.158,4.13-1.385,9.184,1.909,12.48l26.133,26.133l-30.165,30.165l-26.133-26.133
			c-3.296-3.294-8.35-4.067-12.48-1.909c-4.988,2.619-10.195,4.796-15.563,6.507c-4.444,1.398-7.467,5.517-7.467,10.176v36.896
			h-42.667l0.011-36.875c0-4.659-3.023-8.778-7.467-10.176c-5.367-1.711-10.575-3.888-15.563-6.507
			c-4.13-2.158-9.184-1.385-12.48,1.909l-26.133,26.133l-30.165-30.165l26.133-26.133c3.294-3.296,4.068-8.35,1.909-12.48
			c-2.619-4.988-4.796-10.195-6.507-15.563c-1.398-4.444-5.517-7.467-10.176-7.467h-36.896v-42.667h36.885
			c4.659,0,8.778-3.023,10.176-7.467c1.711-5.367,3.888-10.575,6.507-15.563c2.158-4.13,1.385-9.184-1.909-12.48l-26.133-26.133
			l30.165-30.165l26.133,26.133c3.296,3.294,8.35,4.068,12.48,1.909c4.985-2.624,10.193-4.801,15.563-6.507
			c4.444-1.398,7.467-5.517,7.467-10.176v-36.896h42.656v36.885c0,4.659,3.023,8.778,7.467,10.176
			c5.369,1.706,10.577,3.883,15.563,6.507c4.13,2.158,9.184,1.385,12.48-1.909l26.133-26.133l30.165,30.165l-26.133,26.133
			c-3.294,3.296-4.068,8.35-1.909,12.48c2.619,4.988,4.796,10.195,6.507,15.563c1.398,4.444,5.517,7.467,10.176,7.467h36.896
			V373.323z"/>
	</g>
</g>
<g>
	<g>
		<path d="M352,298.667c-29.455,0-53.333,23.878-53.333,53.333s23.878,53.333,53.333,53.333
			c29.441-0.035,53.298-23.893,53.333-53.333C405.333,322.545,381.456,298.667,352,298.667z M352,384c-17.673,0-32-14.327-32-32
			c0-17.673,14.327-32,32-32c17.673,0,32,14.327,32,32C384,369.673,369.674,384,352,384z"/>
	</g>
</g>
<g>
</g>
<g>
</g>
<g>
</g>
<g>
</g>
<g>
</g>
<g>
</g>
<g>
</g>
<g>
</g>
<g>
</g>
<g>
</g>
<g>
</g>
<g>
</g>
<g>
</g>
<g>
</g>
<g>
</g>
</svg>
